<svg width="20" height="22" viewBox="0 0 20 22" fill="none" xmlns="http://www.w3.org/2000/svg">
<path d="M19.443 15.8675C19.233 15.4925 18.978 15.1175 18.693 14.72C18.0148 13.8731 17.5447 12.879 17.3205 11.8175L17.0055 7.3925C16.818 3.965 14.8155 0.5 10.833 0.5H9.16798C5.18548 0.5 3.16798 3.965 2.96548 7.385L2.65048 11.8175C2.42721 12.8884 1.95726 13.8925 1.27798 14.75C1.02298 15.14 0.767981 15.5 0.595481 15.8375C0.410349 16.086 0.298226 16.3812 0.271726 16.6899C0.245226 16.9986 0.305401 17.3086 0.44548 17.585C0.608914 17.8753 0.849683 18.1145 1.14099 18.276C1.4323 18.4375 1.76272 18.5151 2.09548 18.5H7.88548C7.76213 18.8398 7.7225 19.2044 7.76993 19.5628C7.81736 19.9212 7.95046 20.263 8.15797 20.559C8.36547 20.8551 8.64127 21.0968 8.96199 21.2637C9.28272 21.4305 9.63894 21.5176 10.0005 21.5176C10.362 21.5176 10.7182 21.4305 11.039 21.2637C11.3597 21.0968 11.6355 20.8551 11.843 20.559C12.0505 20.263 12.1836 19.9212 12.231 19.5628C12.2785 19.2044 12.2388 18.8398 12.1155 18.5H17.9055C18.2413 18.5122 18.5738 18.4302 18.8654 18.2632C19.157 18.0961 19.3961 17.8508 19.5555 17.555C19.6957 17.2911 19.7594 16.9934 19.7395 16.6952C19.7197 16.3971 19.617 16.1104 19.443 15.8675ZM10.7505 19.25C10.7505 19.3983 10.7065 19.5433 10.6241 19.6667C10.5417 19.79 10.4245 19.8861 10.2875 19.9429C10.1504 19.9997 9.99965 20.0145 9.85416 19.9856C9.70868 19.9566 9.57504 19.8852 9.47015 19.7803C9.36526 19.6754 9.29383 19.5418 9.26489 19.3963C9.23595 19.2508 9.2508 19.1 9.30757 18.963C9.36434 18.8259 9.46047 18.7088 9.5838 18.6264C9.70714 18.544 9.85214 18.5 10.0005 18.5C10.1994 18.5 10.3902 18.579 10.5308 18.7197C10.6715 18.8603 10.7505 19.0511 10.7505 19.25ZM18.2505 16.8725C18.2505 16.9325 18.123 17 17.9355 17H2.09548C1.90798 17 1.81048 16.9325 1.78048 16.8725C1.75048 16.8125 1.78048 16.73 1.85548 16.61C2.05798 16.265 2.29048 15.905 2.53048 15.545C3.28048 14.465 4.03048 13.235 4.14298 11.9225L4.46548 7.49C4.62298 4.955 5.95048 2 9.16798 2H10.833C14.0505 2 15.378 4.955 15.5355 7.4975L15.858 11.9225C15.948 13.25 16.7505 14.465 17.5005 15.545C17.7405 15.905 17.973 16.295 18.213 16.6775C18.2369 16.7032 18.253 16.7352 18.2597 16.7696C18.2663 16.8041 18.2631 16.8397 18.2505 16.8725Z" fill="#21334F"/>
</svg>
