<svg width="87" height="45" viewBox="0 0 87 45" fill="none" xmlns="http://www.w3.org/2000/svg">
<path d="M5.47727 16H0.100852V1.45455H5.47017C6.95218 1.45455 8.22822 1.74574 9.2983 2.32812C10.3731 2.90578 11.2017 3.73911 11.7841 4.82812C12.3665 5.91241 12.6577 7.20975 12.6577 8.72017C12.6577 10.2353 12.3665 11.5374 11.7841 12.6264C11.2064 13.7154 10.3802 14.5511 9.3054 15.1335C8.23059 15.7112 6.95455 16 5.47727 16ZM3.61648 13.0028H5.34233C6.15672 13.0028 6.84564 12.8655 7.40909 12.5909C7.97727 12.3116 8.40578 11.8594 8.6946 11.2344C8.98816 10.6046 9.13494 9.76657 9.13494 8.72017C9.13494 7.67377 8.98816 6.84044 8.6946 6.22017C8.40104 5.59517 7.9678 5.14536 7.39489 4.87074C6.8267 4.59138 6.12595 4.4517 5.29261 4.4517H3.61648V13.0028ZM14.7102 16V5.09091H18.1832V16H14.7102ZM16.4503 3.8196C15.9626 3.8196 15.5436 3.65862 15.1932 3.33665C14.8428 3.00994 14.6676 2.61695 14.6676 2.15767C14.6676 1.70312 14.8428 1.31487 15.1932 0.992898C15.5436 0.666193 15.9626 0.50284 16.4503 0.50284C16.9427 0.50284 17.3617 0.666193 17.7074 0.992898C18.0578 1.31487 18.233 1.70312 18.233 2.15767C18.233 2.61695 18.0578 3.00994 17.7074 3.33665C17.3617 3.65862 16.9427 3.8196 16.4503 3.8196ZM29.918 8.42188L26.729 8.5071C26.6959 8.27983 26.6059 8.0786 26.4592 7.90341C26.3124 7.72348 26.1206 7.58381 25.8839 7.48438C25.6519 7.38021 25.382 7.32812 25.0742 7.32812C24.6718 7.32812 24.3285 7.40862 24.0444 7.5696C23.765 7.73059 23.6277 7.94839 23.6325 8.22301C23.6277 8.43608 23.7129 8.62074 23.8881 8.77699C24.0681 8.93324 24.3877 9.05871 24.8469 9.15341L26.9492 9.55114C28.0382 9.75947 28.8479 10.1051 29.3782 10.5881C29.9132 11.071 30.1831 11.7102 30.1879 12.5057C30.1831 13.2538 29.9606 13.9048 29.5202 14.4588C29.0846 15.0128 28.488 15.4437 27.7305 15.7514C26.9729 16.0545 26.1064 16.206 25.131 16.206C23.5733 16.206 22.3446 15.8864 21.445 15.2472C20.5501 14.6032 20.0387 13.7415 19.9109 12.6619L23.3413 12.5767C23.417 12.9744 23.6135 13.2775 23.9308 13.4858C24.248 13.6941 24.6528 13.7983 25.1452 13.7983C25.5903 13.7983 25.9525 13.7154 26.2319 13.5497C26.5112 13.384 26.6533 13.1638 26.658 12.8892C26.6533 12.643 26.5444 12.4465 26.3313 12.2997C26.1183 12.1482 25.7844 12.0298 25.3299 11.9446L23.4265 11.5824C22.3327 11.3835 21.5183 11.0166 20.9833 10.4815C20.4483 9.94176 20.1831 9.25521 20.1879 8.42188C20.1831 7.69271 20.3772 7.07008 20.7702 6.55398C21.1632 6.03314 21.7219 5.63542 22.4464 5.3608C23.1708 5.08617 24.0254 4.94886 25.0103 4.94886C26.4876 4.94886 27.6523 5.259 28.5046 5.87926C29.3569 6.49479 29.828 7.34233 29.918 8.42188ZM31.8977 20.0909V5.09091H35.3352V6.95881H35.4418C35.5838 6.62737 35.785 6.30777 36.0455 6C36.3106 5.69223 36.6468 5.44129 37.054 5.24716C37.4659 5.0483 37.9583 4.94886 38.5312 4.94886C39.2888 4.94886 39.9967 5.14773 40.6548 5.54545C41.3177 5.94318 41.8527 6.55634 42.2599 7.38494C42.6671 8.21354 42.8707 9.26941 42.8707 10.5526C42.8707 11.7884 42.6742 12.8229 42.2812 13.6562C41.893 14.4896 41.3674 15.1146 40.7045 15.5312C40.0464 15.9479 39.3149 16.1562 38.5099 16.1562C37.9607 16.1562 37.4848 16.0663 37.0824 15.8864C36.6799 15.7064 36.3414 15.4697 36.0668 15.1761C35.7969 14.8826 35.5885 14.5677 35.4418 14.2315H35.3707V20.0909H31.8977ZM35.2997 10.5455C35.2997 11.1326 35.3778 11.6439 35.5341 12.0795C35.6951 12.5152 35.9247 12.8537 36.223 13.0952C36.526 13.3319 36.8883 13.4503 37.3097 13.4503C37.7358 13.4503 38.098 13.3319 38.3963 13.0952C38.6946 12.8537 38.9195 12.5152 39.071 12.0795C39.2273 11.6439 39.3054 11.1326 39.3054 10.5455C39.3054 9.95833 39.2273 9.44934 39.071 9.01847C38.9195 8.58759 38.6946 8.25379 38.3963 8.01705C38.1027 7.7803 37.7405 7.66193 37.3097 7.66193C36.8835 7.66193 36.5213 7.77794 36.223 8.00994C35.9247 8.24195 35.6951 8.57339 35.5341 9.00426C35.3778 9.43513 35.2997 9.94886 35.2997 10.5455ZM47.766 16.1847C47.07 16.1847 46.4521 16.0687 45.9123 15.8366C45.3772 15.5999 44.9535 15.2448 44.641 14.7713C44.3332 14.2931 44.1793 13.6941 44.1793 12.9744C44.1793 12.3684 44.2859 11.857 44.4989 11.4403C44.712 11.0237 45.0056 10.6851 45.3796 10.4247C45.7537 10.1643 46.1845 9.9678 46.6722 9.83523C47.1599 9.69792 47.6808 9.60559 48.2347 9.55824C48.855 9.50142 49.3545 9.44223 49.7333 9.38068C50.1121 9.31439 50.3867 9.22206 50.5572 9.10369C50.7324 8.98059 50.82 8.80776 50.82 8.58523V8.54972C50.82 8.18513 50.6945 7.90341 50.4435 7.70455C50.1926 7.50568 49.854 7.40625 49.4279 7.40625C48.9686 7.40625 48.5993 7.50568 48.32 7.70455C48.0406 7.90341 47.863 8.17803 47.7873 8.52841L44.5842 8.41477C44.6789 7.75189 44.9227 7.16004 45.3157 6.6392C45.7134 6.11364 46.2579 5.7017 46.9492 5.40341C47.6452 5.10038 48.4809 4.94886 49.4563 4.94886C50.1523 4.94886 50.7939 5.03172 51.381 5.19744C51.9682 5.35843 52.4795 5.59517 52.9151 5.90767C53.3507 6.21544 53.6869 6.59422 53.9237 7.04403C54.1651 7.49384 54.2859 8.00758 54.2859 8.58523V16H51.0188V14.4801H50.9336C50.7395 14.8494 50.4909 15.1619 50.1879 15.4176C49.8896 15.6733 49.5368 15.8651 49.1296 15.9929C48.7272 16.1207 48.2726 16.1847 47.766 16.1847ZM48.8384 13.9119C49.2125 13.9119 49.5487 13.8362 49.8469 13.6847C50.15 13.5331 50.3915 13.3248 50.5714 13.0597C50.7513 12.7898 50.8413 12.4773 50.8413 12.1222V11.0852C50.7418 11.1373 50.6211 11.1847 50.479 11.2273C50.3417 11.2699 50.1902 11.3101 50.0245 11.348C49.8588 11.3859 49.6883 11.419 49.5131 11.4474C49.3379 11.4759 49.1699 11.5019 49.0089 11.5256C48.6822 11.5777 48.4028 11.6581 48.1708 11.767C47.9435 11.8759 47.7683 12.018 47.6452 12.1932C47.5269 12.3636 47.4677 12.5672 47.4677 12.804C47.4677 13.1638 47.5955 13.4384 47.8512 13.6278C48.1116 13.8172 48.4407 13.9119 48.8384 13.9119ZM62.5671 5.09091V7.64773H55.685V5.09091H62.5671ZM57.1268 2.47727H60.5998V12.5696C60.5998 12.7827 60.6329 12.9555 60.6992 13.0881C60.7702 13.2159 60.872 13.3082 61.0046 13.3651C61.1372 13.4171 61.2958 13.4432 61.4805 13.4432C61.613 13.4432 61.7527 13.4313 61.8995 13.4077C62.051 13.3793 62.1647 13.3556 62.2404 13.3366L62.766 15.8438C62.6003 15.8911 62.3659 15.9503 62.0629 16.0213C61.7646 16.0923 61.4071 16.1373 60.9904 16.1562C60.176 16.1941 59.4776 16.0994 58.8952 15.8722C58.3176 15.6402 57.8749 15.2803 57.5671 14.7926C57.2641 14.3049 57.1173 13.6918 57.1268 12.9531V2.47727ZM69.3143 16.206C68.1637 16.206 67.1765 15.9692 66.3526 15.4957C65.5335 15.0223 64.9038 14.3641 64.4634 13.5213C64.0231 12.6738 63.8029 11.6937 63.8029 10.581C63.8029 9.46354 64.0231 8.48343 64.4634 7.64062C64.9085 6.79309 65.5406 6.13258 66.3597 5.65909C67.1836 5.18561 68.1661 4.94886 69.3072 4.94886C70.3157 4.94886 71.194 5.13116 71.9421 5.49574C72.695 5.86032 73.2821 6.37642 73.7035 7.04403C74.1296 7.70691 74.3545 8.4858 74.3782 9.38068H71.1325C71.0662 8.82197 70.8768 8.384 70.5643 8.06676C70.2565 7.74953 69.854 7.59091 69.3569 7.59091C68.9544 7.59091 68.6017 7.70455 68.2987 7.93182C67.9956 8.15436 67.7589 8.4858 67.5884 8.92614C67.4227 9.36174 67.3398 9.90151 67.3398 10.5455C67.3398 11.1894 67.4227 11.7339 67.5884 12.179C67.7589 12.6193 67.9956 12.9531 68.2987 13.1804C68.6017 13.4029 68.9544 13.5142 69.3569 13.5142C69.6789 13.5142 69.9629 13.4455 70.2092 13.3082C70.4601 13.1709 70.6661 12.9697 70.8271 12.7045C70.988 12.4347 71.0898 12.108 71.1325 11.7244H74.3782C74.3451 12.6241 74.1201 13.41 73.7035 14.0824C73.2915 14.7547 72.7115 15.2779 71.9634 15.652C71.2201 16.0213 70.337 16.206 69.3143 16.206ZM79.6286 9.77841V16H76.1555V1.45455H79.5149V7.09375H79.6357C79.8819 6.4214 80.2843 5.89583 80.843 5.51705C81.4065 5.13826 82.0954 4.94886 82.9098 4.94886C83.6768 4.94886 84.3445 5.11932 84.9126 5.46023C85.4808 5.7964 85.9212 6.27225 86.2337 6.88778C86.5509 7.50331 86.7071 8.22301 86.7024 9.04688V16H83.2294V9.72869C83.2341 9.12263 83.0826 8.64915 82.7749 8.30824C82.4671 7.96733 82.0339 7.79688 81.4751 7.79688C81.1106 7.79688 80.7886 7.87737 80.5092 8.03835C80.2346 8.1946 80.0192 8.41951 79.8629 8.71307C79.7114 9.00663 79.6333 9.36174 79.6286 9.77841ZM0.100852 40V25.4545H6.16619C7.25521 25.4545 8.16667 25.6084 8.90057 25.9162C9.6392 26.224 10.1932 26.6548 10.5625 27.2088C10.9366 27.7628 11.1236 28.4044 11.1236 29.1335C11.1236 29.6875 11.0076 30.1823 10.7756 30.6179C10.5436 31.0488 10.224 31.4062 9.81676 31.6903C9.40956 31.9744 8.93845 32.1733 8.40341 32.2869V32.429C8.99053 32.4574 9.53267 32.616 10.0298 32.9048C10.5317 33.1937 10.9342 33.5961 11.2372 34.1122C11.5402 34.6236 11.6918 35.2296 11.6918 35.9304C11.6918 36.7116 11.4929 37.41 11.0952 38.0256C10.6974 38.6364 10.1222 39.1193 9.36932 39.4744C8.61648 39.8248 7.70265 40 6.62784 40H0.100852ZM3.61648 37.1662H5.78977C6.55208 37.1662 7.11316 37.0218 7.47301 36.733C7.8376 36.4441 8.01989 36.0417 8.01989 35.5256C8.01989 35.1515 7.93229 34.8295 7.7571 34.5597C7.58191 34.285 7.33333 34.0743 7.01136 33.9276C6.68939 33.776 6.3035 33.7003 5.85369 33.7003H3.61648V37.1662ZM3.61648 31.4347H5.5625C5.94602 31.4347 6.28693 31.3707 6.58523 31.2429C6.88352 31.1151 7.11553 30.9304 7.28125 30.6889C7.4517 30.4474 7.53693 30.1562 7.53693 29.8153C7.53693 29.3277 7.36411 28.9441 7.01847 28.6648C6.67282 28.3854 6.20644 28.2457 5.61932 28.2457H3.61648V31.4347ZM20.4205 35.2912V29.0909H23.8864V40H20.5767V37.9688H20.4631C20.2216 38.6364 19.8097 39.1667 19.2273 39.5597C18.6496 39.9479 17.9512 40.142 17.1321 40.142C16.3887 40.142 15.7353 39.9716 15.1719 39.6307C14.6084 39.2898 14.1705 38.8139 13.858 38.2031C13.5455 37.5876 13.3868 36.8679 13.3821 36.044V29.0909H16.8551V35.3622C16.8598 35.9541 17.0161 36.4205 17.3239 36.7614C17.6316 37.1023 18.0507 37.2727 18.581 37.2727C18.9266 37.2727 19.2367 37.197 19.5114 37.0455C19.7907 36.8892 20.0109 36.6643 20.1719 36.3707C20.3376 36.0724 20.4205 35.7126 20.4205 35.2912ZM30.0813 40.1562C29.2764 40.1562 28.5449 39.9479 27.8867 39.5312C27.2286 39.1146 26.703 38.4896 26.31 37.6562C25.917 36.8229 25.7205 35.7884 25.7205 34.5526C25.7205 33.2694 25.9241 32.2135 26.3313 31.3849C26.7385 30.5563 27.2712 29.9432 27.9293 29.5455C28.5922 29.1477 29.3048 28.9489 30.0671 28.9489C30.64 28.9489 31.1301 29.0483 31.5373 29.2472C31.9445 29.4413 32.2807 29.6922 32.5458 30C32.811 30.3078 33.0122 30.6274 33.1495 30.9588H33.2205V25.4545H36.6935V40H33.256V38.2315H33.1495C33.0027 38.5677 32.7944 38.8826 32.5245 39.1761C32.2546 39.4697 31.9161 39.7064 31.5089 39.8864C31.1064 40.0663 30.6306 40.1562 30.0813 40.1562ZM31.2887 37.4503C31.7101 37.4503 32.07 37.3319 32.3683 37.0952C32.6665 36.8537 32.8962 36.5152 33.0572 36.0795C33.2182 35.6439 33.2987 35.1326 33.2987 34.5455C33.2987 33.9489 33.2182 33.4351 33.0572 33.0043C32.9009 32.5734 32.6713 32.242 32.3683 32.0099C32.07 31.7779 31.7101 31.6619 31.2887 31.6619C30.8578 31.6619 30.4933 31.7803 30.195 32.017C29.8967 32.2538 29.6694 32.5876 29.5131 33.0185C29.3616 33.4493 29.2859 33.9583 29.2859 34.5455C29.2859 35.1326 29.364 35.6439 29.5202 36.0795C29.6765 36.5152 29.9014 36.8537 30.195 37.0952C30.4933 37.3319 30.8578 37.4503 31.2887 37.4503ZM42.8743 40.1562C42.0694 40.1562 41.3378 39.9479 40.6797 39.5312C40.0215 39.1146 39.496 38.4896 39.103 37.6562C38.71 36.8229 38.5135 35.7884 38.5135 34.5526C38.5135 33.2694 38.7171 32.2135 39.1243 31.3849C39.5315 30.5563 40.0642 29.9432 40.7223 29.5455C41.3852 29.1477 42.0978 28.9489 42.8601 28.9489C43.433 28.9489 43.9231 29.0483 44.3303 29.2472C44.7375 29.4413 45.0736 29.6922 45.3388 30C45.6039 30.3078 45.8052 30.6274 45.9425 30.9588H46.0135V25.4545H49.4865V40H46.049V38.2315H45.9425C45.7957 38.5677 45.5874 38.8826 45.3175 39.1761C45.0476 39.4697 44.709 39.7064 44.3018 39.8864C43.8994 40.0663 43.4235 40.1562 42.8743 40.1562ZM44.0817 37.4503C44.5031 37.4503 44.8629 37.3319 45.1612 37.0952C45.4595 36.8537 45.6892 36.5152 45.8501 36.0795C46.0111 35.6439 46.0916 35.1326 46.0916 34.5455C46.0916 33.9489 46.0111 33.4351 45.8501 33.0043C45.6939 32.5734 45.4643 32.242 45.1612 32.0099C44.8629 31.7779 44.5031 31.6619 44.0817 31.6619C43.6508 31.6619 43.2862 31.7803 42.9879 32.017C42.6896 32.2538 42.4624 32.5876 42.3061 33.0185C42.1546 33.4493 42.0788 33.9583 42.0788 34.5455C42.0788 35.1326 42.157 35.6439 42.3132 36.0795C42.4695 36.5152 42.6944 36.8537 42.9879 37.0952C43.2862 37.3319 43.6508 37.4503 44.0817 37.4503ZM53.8065 44.0909C53.3898 44.0909 52.9968 44.0578 52.6275 43.9915C52.2582 43.9299 51.9409 43.8471 51.6758 43.7429L52.4428 41.2216C52.7837 41.3352 53.0915 41.4015 53.3661 41.4205C53.6455 41.4394 53.8846 41.3944 54.0835 41.2855C54.2871 41.1813 54.4433 40.9943 54.5522 40.7244L54.6871 40.3977L50.8093 29.0909H54.4457L56.4556 36.875H56.5692L58.6076 29.0909H62.2653L58.1531 41.044C57.9542 41.6406 57.6725 42.1662 57.3079 42.6207C56.948 43.08 56.4817 43.4399 55.9087 43.7003C55.3406 43.9607 54.6398 44.0909 53.8065 44.0909Z" fill="#E02B45"/>
</svg>
